<svg width="16" height="17" fill="none" xmlns="http://www.w3.org/2000/svg"><path fill-rule="evenodd" clip-rule="evenodd" d="M4.66.956C5.504.916 5.773.908 7.927.908c2.153 0 2.423.01 3.268.048.844.039 1.42.175 1.925.372a3.897 3.897 0 011.404.923c.404.4.715.883.914 1.416.196.51.33 1.091.37 1.942.038.855.047 1.127.047 3.3 0 2.172-.01 2.444-.048 3.297-.038.851-.173 1.433-.369 1.942a3.928 3.928 0 01-.914 1.418 3.884 3.884 0 01-1.404.922c-.504.198-1.08.333-1.924.372-.846.04-1.116.048-3.27.048-2.153 0-2.422-.01-3.268-.048-.843-.038-1.42-.174-1.924-.372a3.886 3.886 0 01-1.405-.922 3.926 3.926 0 01-.914-1.417c-.195-.51-.33-1.091-.368-1.942C.008 11.353 0 11.081 0 8.908s.01-2.445.048-3.297c.038-.853.173-1.434.368-1.944a3.94 3.94 0 01.915-1.416 3.883 3.883 0 011.403-.923C3.24 1.13 3.815.995 4.66.956zm6.472 1.44c-.837-.038-1.087-.046-3.204-.046s-2.368.008-3.204.046c-.773.036-1.192.166-1.472.276a2.46 2.46 0 00-.912.598 2.484 2.484 0 00-.592.92c-.11.282-.238.705-.273 1.485-.039.844-.047 1.097-.047 3.233s.008 2.39.047 3.233c.035.78.164 1.204.273 1.486.127.347.33.662.592.92.256.265.568.47.912.598.28.11.699.24 1.472.275.836.039 1.086.047 3.204.047 2.117 0 2.367-.008 3.204-.047.773-.035 1.192-.166 1.472-.275a2.46 2.46 0 00.912-.598c.263-.258.465-.573.592-.92.109-.282.238-.706.273-1.486.038-.844.046-1.097.046-3.233s-.008-2.389-.046-3.233c-.035-.78-.164-1.203-.273-1.485a2.486 2.486 0 00-.592-.92 2.458 2.458 0 00-.912-.598c-.28-.11-.7-.24-1.472-.276zm-4.217 8.978a2.62 2.62 0 001.782.091 2.646 2.646 0 001.433-1.072 2.687 2.687 0 00-.332-3.372 2.642 2.642 0 00-2.13-.768A2.629 2.629 0 005.73 7.426a2.683 2.683 0 001.186 3.948zM5.046 6.001a4.043 4.043 0 015.763 0 4.115 4.115 0 011.194 2.907 4.146 4.146 0 01-1.194 2.908 4.056 4.056 0 01-2.881 1.204 4.056 4.056 0 01-2.882-1.204 4.13 4.13 0 01-1.193-2.908c0-1.09.43-2.136 1.193-2.907zm7.86-.592a.973.973 0 00.232-1.073.974.974 0 00-.53-.536.956.956 0 00-1.064.234.977.977 0 00.02 1.355.96.96 0 001.343.02z" fill="#fff"/></svg>